<?xml version="1.0" encoding="utf-8"?>
<!-- Generator: Adobe Illustrator 27.5.0, SVG Export Plug-In . SVG Version: 6.00 Build 0)  -->
<svg version="1.1" xmlns="http://www.w3.org/2000/svg" xmlns:xlink="http://www.w3.org/1999/xlink" x="0px" y="0px"
	 viewBox="0 0 240 240" style="enable-background:new 0 0 240 240;" xml:space="preserve">
<g id="BACKGROUND">
	<rect style="fill:transparent;" width="240" height="240"/>
</g>
<g id="OBJECTS" transform="translate(-370,-48) scale(1.4)">
	<g>
		<path style="fill:#333;" d="M315.731,183.948c0.573-1.405,1.285-2.786,1.995-4.028c0.935-1.636,1.739-3.941,2.41-6.461
			c-16.592,2.671-48.963-5.262-49.621,0.612C269.818,180.286,305.821,183.911,315.731,183.948z"/>
		<path style="fill:#333;" d="M398.454,194.131c-5.528-7.443,21.156-68.39,18.043-95.133
			c-0.574-7.217-2.624-15.091-13.451-25.261c-10.826-10.17-0.164-17.961-20.479-27.489c0,0-11.728-12.91-16.557-11.136
			c-4.829,1.774,0.493,14.29,0.493,14.29s-7.589,5.716-10.249,12.516c0,0-13.305,0.197-14.093,3.745
			c-0.789,3.548,4.73,8.673,15.177,12.516c0,0,0.026,0.08,0.075,0.217c-0.028-0.213-0.038-0.335-0.038-0.335
			s3.229,5.295,6.763,9.185c-0.976-0.273-1.798-0.699-2.515-1.204c0.029,2.221-0.066,6.354-1.033,9.187
			c-1.38,4.041-17.838,5.913-22.371,15.67c-4.533,9.757-8.87,13.699-10.939,27.792s-4.435,17.838-4.238,23.258
			c0.066,1.808-0.172,3.979-0.597,6.22c-0.18,4.202-1.049,8.69-3.196,12.102c-1.615,2.568-3.276,5.437-3.794,8.129
			c-0.044,1.381,0.262,2.676,1.083,3.804c2.365,3.252,9.362,5.617,13.009,5.815c3.646,0.197,14.093,6.406,18.134,4.534
			c0.89-0.413,1.782-0.913,2.612-1.481c2.415-2.087,4.23-4.805,2.652-7.673c-2.168-3.942-8.497-4.346-12.951-4.742
			c3.634-1.353,12.127-0.138,14.295,3.804c0.426,0.775,0.633,1.587,0.659,2.401c2.685,0.14,9.92,0.309,15.146-1.478
			c-1.65-6.153-3.507-13.749-5.371-20.555c-3.737-13.642-13.64-36.036-13.64-36.036s10.789,21.013,15.046,35.45
			c2.697,9.147,4.513,20.037,6.033,26.795c0.658,2.141,1.26,3.6,1.816,4.07c2.053,1.737,4.895,2.368,7.421,1.421
			c2.526-0.947,5.053-0.79,6.789-1.737c1.131-0.083,2.045-0.289,2.568-0.988c0.018-0.642,0.028-1.206,0.044-1.609
			c0.164-4.347-2.93-3.164-4.922-4.688c-2.168-1.406-5.546-45.005-4.795-45.767c0.372,0.081,2.6,20.477,4.233,33.768
			c0.953-9.519,3.814-27.591,3.504-33.768c1.91,6.991-0.592,29.916-3.031,37.534c0.517,4.025,0.933,6.862,1.144,7.354
			c0.528,1.23,4.805-0.117,4.747,5.45c-0.015,0.393-0.057,0.94-0.126,1.568c0.655,0.195,1.789,0.371,2.963-0.214
			c0,0,2.706,0.331,4.183-1.145c0,0,2.731,0.191,3.059-1.859C402.087,196.378,400.997,195.275,398.454,194.131z"/>
	</g>

</g>
</svg>
