<?xml version="1.0" encoding="utf-8"?>
<!-- Generator: Adobe Illustrator 27.5.0, SVG Export Plug-In . SVG Version: 6.00 Build 0)  -->
<svg version="1.1" xmlns="http://www.w3.org/2000/svg" xmlns:xlink="http://www.w3.org/1999/xlink" x="0px" y="0px"
	 viewBox="0 0 240 240" style="enable-background:new 0 0 240 240;" xml:space="preserve">
<g id="BACKGROUND">
	<rect style="fill:transparent;" width="240" height="240"/>
</g>
<g id="OBJECTS" fill="#333" transform="translate(-190,-205) scale(1.2)">
	<path d="M309.514,323.31c7.306-14.467,10.171-31.552,5.529-47.289c-0.972-2.618-1.734-5.355-1.227-8.191
		c1.991-2.868,3.124-6.326,3.362-9.815c-0.267-6.019-4.413-10.956-6.161-16.59c-0.979-3.27-1.531-6.793-3.604-9.634
		c-2.249-3.069-5.268-6.025-6.024-9.88c0.217-0.418,0.45-0.826,0.687-1.231c5.477-8.783,8.281-19.009,10.383-29.082
		c0.848-4.137,1.744-12.77-4.154-13.211c-2.181,0.247-3.812,1.982-5.291,3.465c-3.473,3.269-6.162,7.241-8.758,11.228
		c-5.557,7.039-7.095,15.987-8.702,24.596c-1.638-0.108-3.27-0.073-4.914-0.026c-0.681-6.015-2.617-11.861-4.692-17.529
		c-2.692-6.416-4.489-13.228-7.636-19.445c-2.846-4.886-8.931-9.902-12.674-2.834c-2.45,4.571-2.14,10.006-2.176,15.043
		c0.037,7.178,1.373,14.365,4.027,21.042c1.135,2.641,2.608,5.012,3.538,7.76c1.762,4.119,1.69,8.708,0.789,13.056
		c-1.517,10.415-9.349,18.98-4.41,28.842c-2.96-3.961-3.372-9.183-2.068-14.183c-0.106-0.012-0.212-0.029-0.313-0.053
		c-0.211-0.049-0.418-0.102-0.629-0.151c-0.029-0.005-0.053-0.01-0.077-0.015c-0.004,0-0.008,0-0.012-0.005
		c-0.024-0.005-0.049-0.01-0.073-0.015l-0.004,0c-0.016-0.005-0.033-0.005-0.053-0.006c-6.529-1.056-13.223,0.221-19.434,2.279
		c-10.482,3.699-19.636,10.455-27.443,18.267c-14.367,13.489-18.575,33.512-9.306,50.891c-1.532-1.489-2.753-3.261-3.658-5.196
		c-0.037,0.019-0.075,0.042-0.113,0.065c-0.004,0.004-0.008,0.004-0.013,0.008c-0.004,0.004-0.013,0.008-0.017,0.012
		c-0.004,0-0.004,0.004-0.008,0.004c0,0-0.004,0.004-0.008,0.004c0,0-0.004,0-0.004,0.004c-0.017,0.008-0.03,0.019-0.042,0.027
		c0.004-0.004,0.013-0.008,0.017-0.016c-0.029,0.023-0.059,0.043-0.088,0.058c0.008-0.004,0.017-0.008,0.029-0.015
		c-0.143,0.093-0.282,0.19-0.413,0.304l-0.14,0.113c-0.004,0-0.004,0-0.008,0.004c-0.017,0.016-0.034,0.031-0.051,0.047l0,0.004
		c-0.009,0.008-0.021,0.02-0.03,0.027c-0.017,0.012-0.034,0.027-0.047,0.039c-0.008,0.008-0.017,0.012-0.021,0.02
		c-0.013,0.008-0.021,0.02-0.034,0.031c-0.013,0.012-0.025,0.024-0.038,0.035c-0.004,0.004-0.013,0.012-0.017,0.016
		c-0.013,0.012-0.021,0.02-0.034,0.032c-0.004,0.004-0.012,0.008-0.017,0.012c0.004,0,0.004,0,0.008,0l-0.004,0.004
		c-0.358,0.355-0.644,0.774-0.911,1.202c0.005-0.012,0.009-0.02,0.013-0.032c-0.018,0.036-0.04,0.072-0.057,0.104
		c-0.208,0.389-0.363,0.797-0.502,1.214c-0.079,0.243-0.154,0.486-0.213,0.737c-0.058,0.231-0.092,0.471-0.167,0.702
		c-0.005,0.016-0.014,0.036-0.018,0.053c-0.005,0.02-0.01,0.036-0.015,0.057c-1.139,6.784,4.153,14.186,11.158,14.596
		c1.359,0.012,2.762,0.177,4.048-0.351c0.246-0.101,0.332-0.311,0.303-0.517l0-0.004l0.004-0.004c0-0.004-0.004-0.004-0.004-0.008
		c-0.022-0.062-0.044-0.129-0.062-0.191c-0.004-0.017-0.011-0.029-0.015-0.046c-0.038-0.079-0.072-0.162-0.105-0.241
		c-0.049-0.112-0.118-0.242-0.15-0.371c-0.674-1.206-1.304-2.393-1.899-3.637c0.897,1.276,1.903,2.474,3.025,3.549l0,0.004
		c3.393,3.769,7.414,6.448,12.7,7.885c0.823,0.441,1.554,1.014,2.079,1.838c1.529,3.873,2.967,7.25,7.547,8.103
		c3.069,0.721,6.165-0.212,9.239-0.363c2.832-0.148,5.857,0.763,8.562-0.332c4.085-1.505,4.367-8.154,0.113-9.585
		c-3.66-1.203-7.322,0.47-10.983,0.783c-1.809-0.025-3.548-0.514-5.291-0.987c1.601-0.303,3.057-1.618,4.101-2.774
		c2.179-2.427,1.906-5.956,1.428-8.96c-1.284-6.083-4.365-11.355-7.802-16.428c6.012,7.315,11.968,15.033,8.584,24.266
		c-0.353,0.765-0.772,1.531-1.317,2.181c0,0.004,0,0.004,0,0.004c-0.07,0.104-0.143,0.203-0.221,0.299
		c-0.043,0.052-0.086,0.103-0.125,0.155c-0.138,0.175-0.28,0.346-0.421,0.512c-0.077,0.095-0.159,0.182-0.244,0.269l-0.004,0.004
		c0.008,0,0.016,0.001,0.025,0.001c0.163,0.027,0.326,0.054,0.488,0.084c0.118,0.005,0.237,0.009,0.36,0.018
		c0.061,0.007,0.118,0.009,0.175,0.019c0.041,0.002,0.086,0.007,0.126,0.013c0.004-0.004,0.008-0.008,0.013-0.012
		c1.64,0.023,3.273-0.286,4.852-0.718c1.52-0.217,3.045-0.434,4.566-0.464c0.455,0.012,0.907,0.044,1.358,0.095
		c0.718,0.18,1.423,0.412,2.092,0.737c3.462,1.572,6.157,4.326,8.917,6.874c3.082,3.019,6.363,5.879,9.741,8.569
		c2.741,2.306,5.032,5.135,7.119,8.046c1.513,2.295,3.127,5.045,6.145,5.362c4.622,0.486,7.228-3.243,6.364-7.573
		c-0.56-2.889-2.484-5.356-4.306-7.593c-2.576-3.192-5.441-6.093-8.768-8.499c-0.056-0.047-0.12-0.082-0.189-0.097
		c-0.051-0.059-0.123-0.111-0.216-0.144c-0.033-0.001-0.065-0.002-0.102-0.004c-0.483-0.342-1.057-0.532-1.646-0.551
		c-2.444-0.25-4.918-0.469-7.269-1.207c-8.693-2.09-15.237-6.787-19-13.372c-0.004-0.008-0.008-0.017-0.015-0.025
		c-1.997-3.854-2.917-8.141-3.06-12.477c1.931,14.247,11.141,24.046,26.698,25.414c6.57,0.529,13.299-1.443,18.367-5.601
		c-1.965,2.517-4.796,4.422-7.792,5.621c-0.055,0.039-0.117,0.073-0.184,0.087c-0.229,0.098-0.454,0.203-0.687,0.289
		c-0.382,0.141-0.776,0.261-1.162,0.397c-0.573,0.207-1.15,0.398-1.741,0.531c-0.013,0.02-0.022,0.04-0.031,0.056
		c0.167,0.129,0.334,0.267,0.496,0.404c0.064,0.052,0.127,0.107,0.19,0.163c0.043,0.039,0.091,0.081,0.135,0.116
		c0.083,0.077,0.17,0.154,0.258,0.223c0.179,0.146,0.353,0.292,0.528,0.442c0.194,0.163,0.393,0.323,0.592,0.482
		c1.724,1.275,3.346,2.665,4.978,4.084c2.455,2.078,4.575,4.552,6.596,7.059c2.082,2.723,4.464,5.94,8.188,6.142
		c0.204,0.024,0.4,0.04,0.592,0.047c4.348,0.168,5.64-4.23,4.297-7.944c-1.42-4.68-5.272-8.048-8.449-11.579
		c-0.383-0.273-1.358-1.314-2.28-2.05c0.372-0.182,0.746-0.446,1.03-0.574C300.873,336.812,306.205,330.502,309.514,323.31z
		 M286.978,277.044c-4.46,0.839-10.16,0.258-13.326-3.142c2.559,1.504,5.563,2.206,8.484,2.63
		c6.498,0.813,12.111-3.447,18.381-4.065c0.549-0.012,1.097,0.022,1.644,0.072c-0.004,0.004-0.012,0.004-0.017,0.003
		C296.885,273.385,292.223,276.068,286.978,277.044z"/>

	
	
	
	


</g>
</svg>
